<svg xmlns="http://www.w3.org/2000/svg" viewBox="0 0 17.38 17.38"><defs><style>.cls-1{fill:#adadad;}</style></defs><title>open</title><g id="Layer_2" data-name="Layer 2"><g id="Layer_1-2" data-name="Layer 1"><path class="cls-1" d="M16.31,0h-6a1.07,1.07,0,0,0,0,2.14h3.39L8.07,7.8A1.07,1.07,0,1,0,9.58,9.31l5.65-5.65V7a1.07,1.07,0,1,0,2.14,0v-6A1.07,1.07,0,0,0,16.31,0Z"/><path class="cls-1" d="M12.31,15.54H1.84V5.07H9.71l1.84-1.84H.92A.92.92,0,0,0,0,4.15V16.46a.92.92,0,0,0,.92.92H13.23a.92.92,0,0,0,.92-.92V5.83L12.31,7.66Z"/></g></g></svg>